name rise49.25peak52.1432fall72.8391.mot
datacolumns 19
datarows 55
range 0.000000 0.090003
endheader
time	ground_force1_vx	ground_force1_vy	ground_force1_vz	ground_force1_px	ground_force1_py	ground_force1_pz	ground_force2_vx	ground_force2_vy	ground_force2_vz	ground_force2_px	ground_force2_py	ground_force2_pz	ground_torque1_x	ground_torque1_y	ground_torque1_z	ground_torque2_x	ground_torque2_y	ground_torque2_z	
0.000000	0.000000	0.000000	0.000000	0.000000	0.000000	0.000000	70.426352	812.644761	-42.354762	0.341393	0.000000	-0.060731	0.000000	0.000000	0.000000	0.000000	-13.551901	0.000000	
0.001665	0.000000	0.000000	0.000000	0.000000	0.000000	0.000000	70.645139	813.307937	-42.799081	0.341495	0.000000	-0.060836	0.000000	0.000000	0.000000	0.000000	-13.912622	0.000000	
0.003329	0.000000	0.000000	0.000000	0.000000	0.000000	0.000000	70.861807	813.965321	-43.239361	0.341591	0.000000	-0.060941	0.000000	0.000000	0.000000	0.000000	-14.269885	0.000000	
0.004999	0.000000	0.000000	0.000000	0.000000	0.000000	0.000000	71.073930	814.611414	-43.674230	0.341682	0.000000	-0.061047	0.000000	0.000000	0.000000	0.000000	-14.623102	0.000000	
0.006670	0.000000	0.000000	0.000000	0.000000	0.000000	0.000000	71.279278	815.241297	-44.102815	0.341766	0.000000	-0.061152	0.000000	0.000000	0.000000	0.000000	-14.972106	0.000000	
0.008331	0.000000	0.000000	0.000000	0.000000	0.000000	0.000000	71.475847	815.850614	-44.524632	0.341843	0.000000	-0.061258	0.000000	0.000000	0.000000	0.000000	-15.317032	0.000000	
0.009998	0.000000	0.000000	0.000000	0.000000	0.000000	0.000000	71.661868	816.435526	-44.939470	0.341913	0.000000	-0.061363	0.000000	0.000000	0.000000	0.000000	-15.658207	0.000000	
0.011667	0.000000	0.000000	0.000000	0.000000	0.000000	0.000000	71.835813	816.992643	-45.347281	0.341973	0.000000	-0.061468	0.000000	0.000000	0.000000	0.000000	-15.996032	0.000000	
0.013330	0.000000	0.000000	0.000000	0.000000	0.000000	0.000000	71.996378	817.518939	-45.748075	0.342024	0.000000	-0.061572	0.000000	0.000000	0.000000	0.000000	-16.330896	0.000000	
0.014998	0.000000	0.000000	0.000000	0.000000	0.000000	0.000000	72.142462	818.011665	-46.141836	0.342065	0.000000	-0.061676	0.000000	0.000000	0.000000	0.000000	-16.663088	0.000000	
0.016665	0.000000	0.000000	0.000000	0.000000	0.000000	0.000000	72.273141	818.468265	-46.528457	0.342095	0.000000	-0.061778	0.000000	0.000000	0.000000	0.000000	-16.992748	0.000000	
0.018335	0.000000	0.000000	0.000000	0.000000	0.000000	0.000000	72.387634	818.886291	-46.907690	0.342112	0.000000	-0.061880	0.000000	0.000000	0.000000	0.000000	-17.319832	0.000000	
0.020002	0.000000	0.000000	0.000000	0.000000	0.000000	0.000000	72.485276	819.263346	-47.279127	0.342117	0.000000	-0.061980	0.000000	0.000000	0.000000	0.000000	-17.644097	0.000000	
0.021673	0.000000	0.000000	0.000000	0.000000	0.000000	0.000000	72.565481	819.597025	-47.642191	0.342108	0.000000	-0.062078	0.000000	0.000000	0.000000	0.000000	-17.965105	0.000000	
0.023337	0.000000	0.000000	0.000000	0.000000	0.000000	0.000000	72.627722	819.884883	-47.996147	0.342085	0.000000	-0.062175	0.000000	0.000000	0.000000	0.000000	-18.282243	0.000000	
0.024997	0.000000	0.000000	0.000000	0.000000	0.000000	0.000000	72.671508	820.124418	-48.340125	0.342046	0.000000	-0.062271	0.000000	0.000000	0.000000	0.000000	-18.594753	0.000000	
0.026670	0.000000	0.000000	0.000000	0.000000	0.000000	0.000000	72.696362	820.313066	-48.673149	0.341991	0.000000	-0.062364	0.000000	0.000000	0.000000	0.000000	-18.901765	0.000000	
0.028333	0.000000	0.000000	0.000000	0.000000	0.000000	0.000000	72.701819	820.448210	-48.994175	0.341919	0.000000	-0.062456	0.000000	0.000000	0.000000	0.000000	-19.202336	0.000000	
0.029998	0.000000	0.000000	0.000000	0.000000	0.000000	0.000000	72.687413	820.527197	-49.302126	0.341828	0.000000	-0.062545	0.000000	0.000000	0.000000	0.000000	-19.495491	0.000000	
0.031665	0.000000	0.000000	0.000000	0.000000	0.000000	0.000000	72.652681	820.547371	-49.595926	0.341719	0.000000	-0.062632	0.000000	0.000000	0.000000	0.000000	-19.780256	0.000000	
0.033334	0.000000	0.000000	0.000000	0.000000	0.000000	0.000000	72.597164	820.506097	-49.874535	0.341590	0.000000	-0.062717	0.000000	0.000000	0.000000	0.000000	-20.055686	0.000000	
0.035006	0.000000	0.000000	0.000000	0.000000	0.000000	0.000000	72.520414	820.400798	-50.136973	0.341441	0.000000	-0.062800	0.000000	0.000000	0.000000	0.000000	-20.320894	0.000000	
0.036665	0.000000	0.000000	0.000000	0.000000	0.000000	0.000000	72.422001	820.228990	-50.382342	0.341270	0.000000	-0.062880	0.000000	0.000000	0.000000	0.000000	-20.575065	0.000000	
0.038334	0.000000	0.000000	0.000000	0.000000	0.000000	0.000000	72.301523	819.988308	-50.609839	0.341076	0.000000	-0.062958	0.000000	0.000000	0.000000	0.000000	-20.817472	0.000000	
0.040004	0.000000	0.000000	0.000000	0.000000	0.000000	0.000000	72.158617	819.676538	-50.818768	0.340860	0.000000	-0.063033	0.000000	0.000000	0.000000	0.000000	-21.047476	0.000000	
0.041668	0.000000	0.000000	0.000000	0.000000	0.000000	0.000000	71.992965	819.291638	-51.008540	0.340619	0.000000	-0.063106	0.000000	0.000000	0.000000	0.000000	-21.264531	0.000000	
0.043330	0.000000	0.000000	0.000000	0.000000	0.000000	0.000000	71.804303	818.831759	-51.178673	0.340354	0.000000	-0.063176	0.000000	0.000000	0.000000	0.000000	-21.468182	0.000000	
0.045001	0.000000	0.000000	0.000000	0.000000	0.000000	0.000000	71.592426	818.295257	-51.328790	0.340062	0.000000	-0.063243	0.000000	0.000000	0.000000	0.000000	-21.658054	0.000000	
0.046668	0.000000	0.000000	0.000000	0.000000	0.000000	0.000000	71.357194	817.680706	-51.458611	0.339744	0.000000	-0.063308	0.000000	0.000000	0.000000	0.000000	-21.833850	0.000000	
0.048332	0.000000	0.000000	0.000000	0.000000	0.000000	0.000000	71.098537	816.986901	-51.567945	0.339399	0.000000	-0.063371	0.000000	0.000000	0.000000	0.000000	-21.995341	0.000000	
0.050002	0.000000	0.000000	0.000000	0.000000	0.000000	0.000000	70.816451	816.212865	-51.656684	0.339026	0.000000	-0.063431	0.000000	0.000000	0.000000	0.000000	-22.142355	0.000000	
0.051663	0.000000	0.000000	0.000000	0.000000	0.000000	0.000000	70.511003	815.357845	-51.724792	0.338624	0.000000	-0.063488	0.000000	0.000000	0.000000	0.000000	-22.274774	0.000000	
0.053328	0.000000	0.000000	0.000000	0.000000	0.000000	0.000000	70.182325	814.421317	-51.772302	0.338192	0.000000	-0.063543	0.000000	0.000000	0.000000	0.000000	-22.392527	0.000000	
0.055008	0.000000	0.000000	0.000000	0.000000	0.000000	0.000000	69.830617	813.402979	-51.799307	0.337729	0.000000	-0.063595	0.000000	0.000000	0.000000	0.000000	-22.495583	0.000000	
0.056661	0.000000	0.000000	0.000000	0.000000	0.000000	0.000000	69.456141	812.302750	-51.805955	0.337236	0.000000	-0.063645	0.000000	0.000000	0.000000	0.000000	-22.583948	0.000000	
0.058328	0.000000	0.000000	0.000000	0.000000	0.000000	0.000000	69.059217	811.120769	-51.792450	0.336711	0.000000	-0.063692	0.000000	0.000000	0.000000	0.000000	-22.657666	0.000000	
0.060002	0.000000	0.000000	0.000000	0.000000	0.000000	0.000000	68.640221	809.857389	-51.759046	0.336154	0.000000	-0.063738	0.000000	0.000000	0.000000	0.000000	-22.716816	0.000000	
0.061663	0.000000	0.000000	0.000000	0.000000	0.000000	0.000000	68.199582	808.513176	-51.706045	0.335563	0.000000	-0.063781	0.000000	0.000000	0.000000	0.000000	-22.761513	0.000000	
0.063332	0.000000	0.000000	0.000000	0.000000	0.000000	0.000000	67.737774	807.088907	-51.633799	0.334939	0.000000	-0.063822	0.000000	0.000000	0.000000	0.000000	-22.791906	0.000000	
0.065004	0.000000	0.000000	0.000000	0.000000	0.000000	0.000000	67.255320	805.585566	-51.542711	0.334281	0.000000	-0.063861	0.000000	0.000000	0.000000	0.000000	-22.808185	0.000000	
0.066667	0.000000	0.000000	0.000000	0.000000	0.000000	0.000000	66.752782	804.004344	-51.433229	0.333589	0.000000	-0.063899	0.000000	0.000000	0.000000	0.000000	-22.810577	0.000000	
0.068331	0.000000	0.000000	0.000000	0.000000	0.000000	0.000000	66.230762	802.346634	-51.305854	0.332861	0.000000	-0.063934	0.000000	0.000000	0.000000	0.000000	-22.799349	0.000000	
0.069997	0.000000	0.000000	0.000000	0.000000	0.000000	0.000000	65.689898	800.614033	-51.161134	0.332099	0.000000	-0.063968	0.000000	0.000000	0.000000	0.000000	-22.774809	0.000000	
0.071672	0.000000	0.000000	0.000000	0.000000	0.000000	0.000000	65.130861	798.808333	-50.999662	0.331300	0.000000	-0.064001	0.000000	0.000000	0.000000	0.000000	-22.737305	0.000000	
0.073331	0.000000	0.000000	0.000000	0.000000	0.000000	0.000000	64.554355	796.931523	-50.822080	0.330466	0.000000	-0.064032	0.000000	0.000000	0.000000	0.000000	-22.687226	0.000000	
0.075002	0.000000	0.000000	0.000000	0.000000	0.000000	0.000000	63.961112	794.985781	-50.629073	0.329596	0.000000	-0.064061	0.000000	0.000000	0.000000	0.000000	-22.624997	0.000000	
0.076669	0.000000	0.000000	0.000000	0.000000	0.000000	0.000000	63.351890	792.973470	-50.421367	0.328689	0.000000	-0.064090	0.000000	0.000000	0.000000	0.000000	-22.551084	0.000000	
0.078334	0.000000	0.000000	0.000000	0.000000	0.000000	0.000000	62.727473	790.897132	-50.199727	0.327746	0.000000	-0.064118	0.000000	0.000000	0.000000	0.000000	-22.465984	0.000000	
0.080001	0.000000	0.000000	0.000000	0.000000	0.000000	0.000000	62.088666	788.759480	-49.964951	0.326767	0.000000	-0.064145	0.000000	0.000000	0.000000	0.000000	-22.370228	0.000000	
0.081663	0.000000	0.000000	0.000000	0.000000	0.000000	0.000000	61.436295	786.563391	-49.717867	0.325752	0.000000	-0.064171	0.000000	0.000000	0.000000	0.000000	-22.264373	0.000000	
0.083329	0.000000	0.000000	0.000000	0.000000	0.000000	0.000000	60.771202	784.311897	-49.459329	0.324701	0.000000	-0.064196	0.000000	0.000000	0.000000	0.000000	-22.149001	0.000000	
0.085000	0.000000	0.000000	0.000000	0.000000	0.000000	0.000000	60.094244	782.008176	-49.190211	0.323614	0.000000	-0.064221	0.000000	0.000000	0.000000	0.000000	-22.024718	0.000000	
0.086663	0.000000	0.000000	0.000000	0.000000	0.000000	0.000000	59.406291	779.655538	-48.911403	0.322491	0.000000	-0.064245	0.000000	0.000000	0.000000	0.000000	-21.892143	0.000000	
0.088341	0.000000	0.000000	0.000000	0.000000	0.000000	0.000000	58.708219	777.257419	-48.623807	0.321334	0.000000	-0.064269	0.000000	0.000000	0.000000	0.000000	-21.751910	0.000000	
0.090003	0.000000	0.000000	0.000000	0.000000	0.000000	0.000000	58.000913	774.817365	-48.328329	0.320142	0.000000	-0.064293	0.000000	0.000000	0.000000	0.000000	-21.604663	0.000000	
